<?xml version="1.0" standalone="no"?>
<!DOCTYPE svg PUBLIC "-//W3C//DTD SVG 20010904//EN"
 "http://www.w3.org/TR/2001/REC-SVG-20010904/DTD/svg10.dtd">
<svg version="1.0" xmlns="http://www.w3.org/2000/svg"
 width="315.000000pt" height="315.000000pt" viewBox="0 0 315.000000 315.000000"
 preserveAspectRatio="xMidYMid meet">
<metadata>
Created by potrace 1.11, written by Peter Selinger 2001-2013
</metadata>
<g transform="translate(0.000000,315.000000) scale(0.100000,-0.100000)"
fill="#000000" stroke="none">
<path d="M1375 3057 c-88 -51 -185 -120 -261 -186 -71 -62 -98 -90 -189 -196
-43 -49 -136 -194 -181 -280 -142 -273 -206 -603 -179 -915 10 -122 12 -134
18 -155 3 -11 8 -36 11 -55 10 -63 45 -185 80 -277 114 -300 293 -548 541
-752 68 -57 208 -151 223 -151 4 0 6 105 5 232 -3 440 -12 2173 -13 2466 -1
160 -4 292 -8 292 -4 0 -25 -11 -47 -23z"/>
<path d="M1682 2693 c-4 -692 -11 -2000 -12 -2302 -1 -161 1 -296 4 -299 3 -3
44 20 91 51 436 291 714 750 780 1292 7 59 8 329 0 364 -2 14 -7 47 -10 74
-25 219 -150 528 -295 732 -119 167 -351 374 -507 454 -23 11 -44 21 -46 21
-1 0 -4 -174 -5 -387z"/>
</g>
</svg>
